<svg width="239" height="144" viewBox="0 0 239 144" fill="none" xmlns="http://www.w3.org/2000/svg">
<path d="M73.9394 67.4054C73.7872 67.2288 73.624 67.0622 73.4509 66.9066C73.295 66.7334 73.13 66.569 72.9564 66.4139C72.8027 66.2388 72.6396 66.0723 72.4679 65.9152C72.3136 65.7405 72.1484 65.576 71.9734 65.4225C71.8185 65.2482 71.6517 65.08 71.4849 64.9237C71.3342 64.7477 71.1709 64.583 70.9964 64.431C70.8406 64.2559 70.6755 64.0894 70.5019 63.9323C70.3512 63.7563 70.1879 63.5916 70.0134 63.4396C69.8576 63.2664 69.6925 63.1019 69.5189 62.9469C69.0146 62.3862 68.4255 61.9096 67.7734 61.5348V11.8786C67.7734 11.6142 67.6483 11.482 67.6483 11.2176C67.6805 10.948 67.635 10.6747 67.5172 10.4305C67.5172 10.2983 67.3921 10.0339 67.3921 9.90168C67.3204 9.63155 67.2309 9.36658 67.124 9.10853C66.9862 8.96339 66.8967 8.77857 66.8678 8.57976C66.7178 8.34241 66.542 8.12273 66.3436 7.92481C66.2066 7.79262 66.0815 7.53424 65.9504 7.39604L65.4261 6.86728C65.4261 6.78916 65.3249 6.70504 65.2117 6.65697L64.9555 6.39258H64.9257C64.9257 6.30846 64.8304 6.23034 64.7172 6.17626L64.4551 5.91789C64.4551 5.83978 64.3538 5.75566 64.2406 5.70158L63.9844 5.4432C63.9844 5.35907 63.8831 5.28096 63.7699 5.22688L63.5138 4.9625C63.5138 4.88439 63.4125 4.80027 63.2993 4.74619L63.0372 4.48781V4.45776C63.0372 4.37965 62.9359 4.30154 62.8227 4.24746L62.5665 3.98308H62.5367C62.5367 3.90496 62.4414 3.82084 62.3282 3.76676L62.0661 3.50838V3.47834C62.0661 3.40023 61.9648 3.32211 61.8516 3.26803L61.5955 3.00365H61.5657C61.5657 2.91953 61.4704 2.84141 61.3572 2.78733L61.095 2.52896C61.095 2.45085 60.9938 2.36672 60.8806 2.31865L60.5946 2.03024C60.5946 1.89804 60.3384 1.76585 60.2014 1.76585C60.2022 1.74878 60.1996 1.73172 60.1937 1.71572C60.1877 1.69971 60.1786 1.68508 60.167 1.67271C60.1553 1.66035 60.1412 1.65052 60.1256 1.64381C60.11 1.63709 60.0933 1.63364 60.0763 1.63366C59.8142 1.50747 59.6772 1.36927 59.421 1.23708C59.1956 1.07224 58.9789 0.895754 58.7716 0.708314C58.6406 0.708314 58.3784 0.582126 58.2474 0.582126C57.9852 0.449934 57.592 0.449936 57.461 0.311735C57.2352 0.330277 57.0087 0.286661 56.8057 0.185547H54.5895C54.4339 0.286271 54.2491 0.330763 54.0652 0.311735C53.672 0.449936 53.4158 0.449934 53.2788 0.582126C53.0227 0.582126 52.8916 0.708312 52.7546 0.978705C52.4748 0.985279 52.2033 1.07517 51.9741 1.23708C51.849 1.36927 51.5809 1.50747 51.4499 1.63366C51.2758 1.8262 51.0503 1.96392 50.8005 2.03024C50.7029 2.22943 50.5696 2.4087 50.4073 2.55901C50.2763 2.6912 50.2763 2.81738 50.1511 2.81738L1.61556 63.2713C0.467839 64.6613 -0.105034 66.4438 0.0158857 68.2486C0.136805 70.0533 0.942228 71.7418 2.26493 72.9634C2.41806 73.145 2.58541 73.3137 2.76536 73.4682C2.91495 73.6491 3.08045 73.816 3.25983 73.9669C3.41296 74.1484 3.5803 74.3172 3.76025 74.4716C3.91131 74.6531 4.07668 74.8219 4.25473 74.9764C4.40793 75.156 4.57528 75.3227 4.75516 75.4751C4.90621 75.6565 5.07157 75.8253 5.24962 75.9798C5.40283 76.1594 5.57018 76.3262 5.75005 76.4786C5.90111 76.66 6.06647 76.8288 6.24452 76.9833C6.39773 77.1629 6.56508 77.3297 6.74495 77.482C7.05302 77.8352 7.39641 78.1553 7.76964 78.4374C8.99657 79.5133 10.5833 80.0782 12.208 80.0177H48.3818V85.011C48.3711 86.0275 48.5736 87.0348 48.9761 87.9668C49.3786 88.8988 49.9719 89.7344 50.7171 90.4188C50.872 90.5871 51.0329 90.7493 51.1937 90.8996C51.3455 91.0707 51.5066 91.2332 51.6763 91.3863C51.8312 91.5545 51.992 91.7167 52.1588 91.867C52.3106 92.0381 52.4717 92.2006 52.6414 92.3537C52.7963 92.5219 52.9571 92.6841 53.1239 92.8404C53.2742 93.0129 53.4354 93.1755 53.6065 93.3271C53.7554 93.4953 53.9163 93.6575 54.0831 93.8138C54.2349 93.9849 54.396 94.1474 54.5656 94.3005C54.7146 94.4627 54.8754 94.625 55.0422 94.7812C56.0263 95.8542 57.3079 96.6034 58.7201 96.9313C60.1323 97.2592 61.6097 97.1505 62.9598 96.6194C64.3099 96.0883 65.4702 95.1595 66.2895 93.9538C67.1087 92.7482 67.549 91.3217 67.5529 89.86V79.9937H68.8636C69.8174 80.0096 70.7647 79.834 71.6506 79.4771C72.5364 79.1201 73.3429 78.5889 74.0232 77.9145C74.7036 77.2401 75.244 76.4359 75.6132 75.5488C75.9823 74.6616 76.1728 73.7092 76.1734 72.7471C76.1878 71.7493 75.9967 70.7593 75.6121 69.8398C75.2276 68.9203 74.658 68.0913 73.9394 67.4054ZM48.3699 39.1643V60.4593H31.3553L48.3699 39.1643Z" fill="#020817"/>
<path opacity="0.1" d="M73.9394 67.4054C73.7872 67.2288 73.624 67.0622 73.4509 66.9066C73.295 66.7334 73.13 66.569 72.9564 66.4139C72.8027 66.2388 72.6396 66.0723 72.4679 65.9152C72.3136 65.7405 72.1484 65.576 71.9734 65.4225C71.8185 65.2482 71.6517 65.08 71.4849 64.9237C71.3342 64.7477 71.1709 64.583 70.9964 64.431C70.8406 64.2559 70.6755 64.0894 70.5019 63.9323C70.3512 63.7563 70.1879 63.5916 70.0134 63.4396C69.8576 63.2664 69.6925 63.1019 69.5189 62.9469C69.0146 62.3862 68.4255 61.9096 67.7734 61.5348V11.8786C67.7734 11.6142 67.6483 11.482 67.6483 11.2176C67.6805 10.948 67.635 10.6747 67.5172 10.4305C67.5172 10.2983 67.3921 10.0339 67.3921 9.90168C67.3204 9.63155 67.2309 9.36658 67.124 9.10853C66.9862 8.96339 66.8967 8.77857 66.8678 8.57976C66.7178 8.34241 66.542 8.12273 66.3436 7.92481C66.2066 7.79262 66.0815 7.53424 65.9504 7.39604L65.4261 6.86728C65.4261 6.78916 65.3249 6.70504 65.2117 6.65697L64.9555 6.39258H64.9257C64.9257 6.30846 64.8304 6.23034 64.7172 6.17626L64.4551 5.91789C64.4551 5.83978 64.3538 5.75566 64.2406 5.70158L63.9844 5.4432C63.9844 5.35907 63.8831 5.28096 63.7699 5.22688L63.5138 4.9625C63.5138 4.88439 63.4125 4.80027 63.2993 4.74619L63.0372 4.48781V4.45776C63.0372 4.37965 62.9359 4.30154 62.8227 4.24746L62.5665 3.98308H62.5367C62.5367 3.90496 62.4414 3.82084 62.3282 3.76676L62.0661 3.50838V3.47834C62.0661 3.40023 61.9648 3.32211 61.8516 3.26803L61.5955 3.00365H61.5657C61.5657 2.91953 61.4704 2.84141 61.3572 2.78733L61.095 2.52896C61.095 2.45085 60.9938 2.36672 60.8806 2.31865L60.5946 2.03024C60.5946 1.89804 60.3384 1.76585 60.2014 1.76585C60.2022 1.74878 60.1996 1.73172 60.1937 1.71572C60.1877 1.69971 60.1786 1.68508 60.167 1.67271C60.1553 1.66035 60.1412 1.65052 60.1256 1.64381C60.11 1.63709 60.0933 1.63364 60.0763 1.63366C59.8142 1.50747 59.6772 1.36927 59.421 1.23708C59.1956 1.07224 58.9789 0.895754 58.7716 0.708314C58.6406 0.708314 58.3784 0.582126 58.2474 0.582126C57.9852 0.449934 57.592 0.449936 57.461 0.311735C57.2352 0.330277 57.0087 0.286661 56.8057 0.185547H54.5895C54.4339 0.286271 54.2491 0.330763 54.0652 0.311735C53.672 0.449936 53.4158 0.449934 53.2788 0.582126C53.0227 0.582126 52.8916 0.708312 52.7546 0.978705C52.4748 0.985279 52.2033 1.07517 51.9741 1.23708C51.849 1.36927 51.5809 1.50747 51.4499 1.63366C51.2758 1.8262 51.0503 1.96392 50.8005 2.03024C50.7029 2.22943 50.5696 2.4087 50.4073 2.55901C50.2763 2.6912 50.2763 2.81738 50.1511 2.81738L1.61556 63.2713C0.467839 64.6613 -0.105034 66.4438 0.0158857 68.2486C0.136805 70.0533 0.942228 71.7418 2.26493 72.9634C2.41806 73.145 2.58541 73.3137 2.76536 73.4682C2.91495 73.6491 3.08045 73.816 3.25983 73.9669C3.41296 74.1484 3.5803 74.3172 3.76025 74.4716C3.91131 74.6531 4.07668 74.8219 4.25473 74.9764C4.40793 75.156 4.57528 75.3227 4.75516 75.4751C4.90621 75.6565 5.07157 75.8253 5.24962 75.9798C5.40283 76.1594 5.57018 76.3262 5.75005 76.4786C5.90111 76.66 6.06647 76.8288 6.24452 76.9833C6.39773 77.1629 6.56508 77.3297 6.74495 77.482C7.05302 77.8352 7.39641 78.1553 7.76964 78.4374C8.99657 79.5133 10.5833 80.0782 12.208 80.0177H48.3818V85.011C48.3711 86.0275 48.5736 87.0348 48.9761 87.9668C49.3786 88.8988 49.9719 89.7344 50.7171 90.4188C50.872 90.5871 51.0329 90.7493 51.1937 90.8996C51.3455 91.0707 51.5066 91.2332 51.6763 91.3863C51.8312 91.5545 51.992 91.7167 52.1588 91.867C52.3106 92.0381 52.4717 92.2006 52.6414 92.3537C52.7963 92.5219 52.9571 92.6841 53.1239 92.8404C53.2742 93.0129 53.4354 93.1755 53.6065 93.3271C53.7554 93.4953 53.9163 93.6575 54.0831 93.8138C54.2349 93.9849 54.396 94.1474 54.5656 94.3005C54.7146 94.4627 54.8754 94.625 55.0422 94.7812C56.0263 95.8542 57.3079 96.6034 58.7201 96.9313C60.1323 97.2592 61.6097 97.1505 62.9598 96.6194C64.3099 96.0883 65.4702 95.1595 66.2895 93.9538C67.1087 92.7482 67.549 91.3217 67.5529 89.86V79.9937H68.8636C69.8174 80.0096 70.7647 79.834 71.6506 79.4771C72.5364 79.1201 73.3429 78.5889 74.0232 77.9145C74.7036 77.2401 75.244 76.4359 75.6132 75.5488C75.9823 74.6616 76.1728 73.7092 76.1734 72.7471C76.1878 71.7493 75.9967 70.7593 75.6121 69.8398C75.2276 68.9203 74.658 68.0913 73.9394 67.4054ZM48.3699 39.1643V60.4593H31.3553L48.3699 39.1643Z" fill="black"/>
<path d="M71.3649 67.7185C71.3643 68.6812 71.1736 69.634 70.8041 70.5216C70.4346 71.4091 69.8936 72.2136 69.2126 72.8881C68.5317 73.5626 67.7244 74.0936 66.8379 74.4502C65.9514 74.8068 65.0034 74.9818 64.0491 74.9651H62.7444V84.9817C62.7444 86.9036 61.9875 88.7467 60.6401 90.1057C59.2927 91.4647 57.4652 92.2282 55.5597 92.2282C53.6542 92.2282 51.8267 91.4647 50.4793 90.1057C49.1319 88.7467 48.375 86.9036 48.375 84.9817V74.9651H7.22667C5.61177 75.0203 4.03623 74.4556 2.81813 73.3848C2.06342 72.8125 1.43151 72.0919 0.960573 71.2665C0.489632 70.4411 0.189422 69.528 0.078066 68.5823C-0.0332897 67.6366 0.0465197 66.678 0.312675 65.7642C0.578831 64.8505 1.02581 64.0007 1.62663 63.2661L49.9418 2.63183C50.0729 2.63183 50.0729 2.50565 50.2039 2.37346C50.3662 2.22315 50.4995 2.04388 50.5971 1.84468C50.8478 1.77635 51.0747 1.63904 51.2524 1.4481C51.3776 1.31591 51.6397 1.18373 51.7707 1.05153C52.0006 0.8857 52.2746 0.793565 52.5571 0.787148C52.6882 0.528772 52.8193 0.396575 53.0814 0.396575C53.2065 0.264382 53.4686 0.264385 53.8618 0.132193C54.0466 0.151974 54.2323 0.105142 54.3861 0H56.6082C56.8071 0.107364 57.033 0.153338 57.2576 0.132193C57.3886 0.264385 57.7818 0.264382 58.044 0.396575C58.175 0.396575 58.4372 0.528768 58.5682 0.528768C58.8244 0.787144 59.0865 0.919342 59.2176 1.05153C59.4797 1.18373 59.6108 1.31591 59.8729 1.4481C59.9077 1.4481 59.941 1.46203 59.9656 1.48682C59.9902 1.51161 60.004 1.54524 60.004 1.5803C60.135 1.5803 60.3972 1.71249 60.3972 1.84468L60.9155 2.37346C61.0465 2.50565 61.1776 2.76402 61.3087 2.89621C61.5085 3.09501 61.6845 3.31686 61.8329 3.55718C61.8657 3.75599 61.957 3.94023 62.0951 4.08594C62.2027 4.3404 62.2885 4.60377 62.3512 4.8731C62.3512 5.00529 62.4823 5.26967 62.4823 5.40186C62.6003 5.64816 62.6458 5.92343 62.6134 6.19502C62.6134 6.45339 62.7444 6.58558 62.7444 6.84997V60.472H64.0491C65.9697 60.4623 67.8162 61.2185 69.1865 62.5758C70.5568 63.9331 71.3398 65.7816 71.3649 67.7185ZM48.375 27.9286L22.3825 60.472H48.375V27.9286Z" fill="#020817"/>
<path d="M147.782 19.6517C146.308 17.3883 144.594 15.293 142.671 13.4027C142.6 13.324 142.524 13.2498 142.444 13.1803L142.379 13.1142C142.319 13.0481 142.26 12.982 142.194 12.922C142.027 12.7417 141.848 12.5734 141.676 12.3992L141.628 12.3571L141.449 12.1769C141.429 12.1534 141.407 12.1313 141.384 12.1108C141.324 12.0447 141.265 11.9786 141.199 11.9185C141.032 11.7382 140.854 11.57 140.681 11.3957L140.633 11.3537L140.454 11.1734L140.389 11.1073C140.329 11.0412 140.27 10.9751 140.204 10.915C140.037 10.7348 139.859 10.5665 139.686 10.3923L139.638 10.3502L139.46 10.1699C139.46 10.1699 139.418 10.1219 139.394 10.1039C139.335 10.0353 139.271 9.97108 139.203 9.91158C139.043 9.72531 138.864 9.56307 138.691 9.38882L138.643 9.34675C138.588 9.28224 138.529 9.22198 138.465 9.16649C138.465 9.16649 138.423 9.11842 138.399 9.10039C133.151 3.64445 126.311 0.0332031 118.638 0.0332031C108.314 0.0332031 99.8304 6.22822 94.3376 14.6525C88.5886 23.0647 85.592 34.0307 85.4609 46.1443C85.592 58.1618 88.5886 69.1998 94.3376 77.6361C95.8097 79.866 97.5045 81.9378 99.3955 83.8191L99.6576 84.0775V84.1075L100.122 84.5762C100.2 84.6663 100.283 84.7444 100.361 84.8225L100.623 85.0809L100.653 85.111L101.117 85.5797L101.355 85.832L101.618 86.0844C101.63 86.0912 101.641 86.1016 101.647 86.1144L102.112 86.5831L102.35 86.8355L102.613 87.0879C102.62 87.0915 102.626 87.0966 102.631 87.1028C102.636 87.109 102.64 87.1162 102.642 87.1239L103.107 87.5926L103.351 87.839L103.607 88.0913L103.643 88.1274L104.108 88.5961C109.267 93.7936 115.927 97.2847 123.583 97.2847C133.639 97.2847 142.26 90.9575 147.752 82.6534C153.364 74.2412 156.504 63.155 156.504 51.1676C156.522 39.0239 153.394 28.088 147.782 19.6517ZM130.785 69.4462C126.996 75.1064 122.683 77.6121 118.638 77.6121C116.149 77.5513 113.74 76.7113 111.745 75.2086C111.561 74.9682 111.382 74.7159 111.203 74.4515C107.545 68.9174 104.93 60.4872 104.93 51.1315C104.93 41.6437 107.545 33.3457 111.203 27.6974C115.129 22.1634 119.544 19.5316 123.613 19.6578C125.971 19.6469 128.27 20.4057 130.166 21.8209C130.374 22.1033 130.577 22.3797 130.762 22.6741C134.42 28.3404 137.029 36.6385 137.029 46.1082C137.053 55.4638 134.443 63.9061 130.785 69.4462Z" fill="#020817"/>
<path opacity="0.1" d="M147.782 19.6517C146.308 17.3883 144.594 15.293 142.671 13.4027C142.6 13.324 142.524 13.2498 142.444 13.1803L142.379 13.1142C142.319 13.0481 142.26 12.982 142.194 12.922C142.027 12.7417 141.848 12.5734 141.676 12.3992L141.628 12.3571L141.449 12.1769C141.429 12.1534 141.407 12.1313 141.384 12.1108C141.324 12.0447 141.265 11.9786 141.199 11.9185C141.032 11.7382 140.854 11.57 140.681 11.3957L140.633 11.3537L140.454 11.1734L140.389 11.1073C140.329 11.0412 140.27 10.9751 140.204 10.915C140.037 10.7348 139.859 10.5665 139.686 10.3923L139.638 10.3502L139.46 10.1699C139.46 10.1699 139.418 10.1219 139.394 10.1039C139.335 10.0353 139.271 9.97108 139.203 9.91158C139.043 9.72531 138.864 9.56307 138.691 9.38882L138.643 9.34675C138.588 9.28224 138.529 9.22198 138.465 9.16649C138.465 9.16649 138.423 9.11842 138.399 9.10039C133.151 3.64445 126.311 0.0332031 118.638 0.0332031C108.314 0.0332031 99.8304 6.22822 94.3376 14.6525C88.5886 23.0647 85.592 34.0307 85.4609 46.1443C85.592 58.1618 88.5886 69.1998 94.3376 77.6361C95.8097 79.866 97.5045 81.9378 99.3955 83.8191L99.6576 84.0775V84.1075L100.122 84.5762C100.2 84.6663 100.283 84.7444 100.361 84.8225L100.623 85.0809L100.653 85.111L101.117 85.5797L101.355 85.832L101.618 86.0844C101.63 86.0912 101.641 86.1016 101.647 86.1144L102.112 86.5831L102.35 86.8355L102.613 87.0879C102.62 87.0915 102.626 87.0966 102.631 87.1028C102.636 87.109 102.64 87.1162 102.642 87.1239L103.107 87.5926L103.351 87.839L103.607 88.0913L103.643 88.1274L104.108 88.5961C109.267 93.7936 115.927 97.2847 123.583 97.2847C133.639 97.2847 142.26 90.9575 147.752 82.6534C153.364 74.2412 156.504 63.155 156.504 51.1676C156.522 39.0239 153.394 28.088 147.782 19.6517ZM130.785 69.4462C126.996 75.1064 122.683 77.6121 118.638 77.6121C116.149 77.5513 113.74 76.7113 111.745 75.2086C111.561 74.9682 111.382 74.7159 111.203 74.4515C107.545 68.9174 104.93 60.4872 104.93 51.1315C104.93 41.6437 107.545 33.3457 111.203 27.6974C115.129 22.1634 119.544 19.5316 123.613 19.6578C125.971 19.6469 128.27 20.4057 130.166 21.8209C130.374 22.1033 130.577 22.3797 130.762 22.6741C134.42 28.3404 137.029 36.6385 137.029 46.1082C137.053 55.4638 134.443 63.9061 130.785 69.4462Z" fill="black"/>
<path d="M85.4512 46.1111C85.5822 33.9915 88.5908 23.0555 94.3338 14.6253C99.8206 6.21304 108.31 0 118.634 0C128.691 0 137.311 6.19502 142.798 14.6253C148.416 23.0375 151.549 33.9915 151.549 46.1111C151.549 58.1286 148.416 69.1726 142.798 77.6029C137.311 85.901 128.691 92.2282 118.634 92.2282C108.31 92.2282 99.8206 85.901 94.3338 77.6029C88.6027 69.1726 85.5822 58.1045 85.4512 46.1111ZM137.049 46.1111C137.049 36.6293 134.44 28.3252 130.782 22.677C126.993 17.1429 122.685 14.5111 118.634 14.6433C114.583 14.5111 110.139 17.1429 106.225 22.677C102.567 28.3432 99.9517 36.6473 99.9517 46.1111C99.9517 55.4667 102.567 63.903 106.225 69.431C110.139 75.0973 114.565 77.6029 118.634 77.6029C122.703 77.6029 126.975 75.0973 130.782 69.431C134.44 63.903 137.049 55.4547 137.049 46.1111Z" fill="#020817"/>
<path d="M236.758 67.4054C236.603 67.2311 236.436 67.0629 236.27 66.9066C236.109 66.7324 235.942 66.5702 235.775 66.4139C235.614 66.2397 235.453 66.0714 235.287 65.9152C235.126 65.7409 234.959 65.5727 234.792 65.4225C234.631 65.2482 234.47 65.08 234.304 64.9238C234.143 64.7495 233.976 64.5813 233.809 64.431C233.648 64.2568 233.481 64.0886 233.321 63.9323C233.167 63.7592 233.004 63.5947 232.832 63.4396C232.671 63.2653 232.504 63.1031 232.338 62.9469C231.833 62.3843 231.241 61.9075 230.586 61.5348V11.8786C230.586 11.6142 230.461 11.482 230.461 11.2176C230.493 10.948 230.448 10.6747 230.33 10.4305C230.33 10.2983 230.205 10.0339 230.205 9.90168C230.133 9.63155 230.044 9.36658 229.937 9.10854C229.801 8.96165 229.712 8.77766 229.681 8.57976C229.533 8.34099 229.356 8.12108 229.156 7.92481C229.019 7.79262 228.894 7.53424 228.763 7.39604L228.239 6.86728C228.239 6.78916 228.138 6.70504 228.024 6.65697L227.768 6.39258H227.738C227.738 6.30846 227.643 6.23034 227.53 6.17627L227.268 5.91789C227.268 5.83978 227.166 5.75566 227.053 5.70158L226.797 5.4432C226.797 5.35908 226.696 5.28096 226.583 5.22688L226.326 4.96251C226.326 4.88439 226.225 4.80027 226.112 4.74619L225.85 4.48781V4.45776C225.85 4.37965 225.749 4.30154 225.635 4.24746L225.379 3.98308H225.349C225.349 3.90496 225.254 3.82084 225.141 3.76676L224.879 3.50838V3.47835C224.879 3.40023 224.778 3.32211 224.664 3.26804L224.408 3.00365H224.378C224.378 2.91953 224.283 2.84141 224.17 2.78733L223.908 2.52896C223.908 2.45085 223.806 2.36672 223.693 2.31865L223.407 2.03024C223.407 1.89804 223.151 1.76585 223.014 1.76585C223.014 1.74849 223.011 1.7313 223.004 1.71527C222.998 1.69923 222.988 1.68465 222.976 1.67238C222.964 1.6601 222.949 1.65037 222.933 1.64372C222.917 1.63708 222.9 1.63366 222.883 1.63366C222.627 1.50747 222.49 1.36927 222.234 1.23708C222.008 1.07224 221.792 0.895754 221.584 0.708314C221.453 0.708314 221.191 0.582126 221.06 0.582126C220.798 0.449934 220.411 0.449936 220.274 0.311735C220.048 0.33089 219.821 0.287242 219.618 0.185547H217.402C217.247 0.286271 217.062 0.330763 216.878 0.311735C216.485 0.449936 216.229 0.449934 216.092 0.582126C215.835 0.582126 215.704 0.708312 215.567 0.978706C215.288 0.985987 215.016 1.07582 214.787 1.23708C214.662 1.36927 214.394 1.50747 214.269 1.63366C214.091 1.82459 213.864 1.9619 213.613 2.03024C213.514 2.22819 213.381 2.40713 213.22 2.55901C213.089 2.6912 213.089 2.81738 212.964 2.81738L164.416 63.2714C163.269 64.6614 162.696 66.4438 162.817 68.2486C162.938 70.0534 163.743 71.7418 165.066 72.9635C165.219 73.145 165.386 73.3138 165.566 73.4682C165.716 73.6491 165.881 73.816 166.061 73.9669C166.214 74.1484 166.381 74.3172 166.561 74.4717C167.06 74.9714 167.557 75.4741 168.05 75.9798C168.386 76.3103 168.718 76.6448 169.045 76.9833C169.198 77.1629 169.366 77.3297 169.546 77.482C169.854 77.8352 170.197 78.1553 170.57 78.4374C171.797 79.5133 173.384 80.0783 175.009 80.0177H211.183V85.011C211.172 86.0275 211.374 87.0348 211.777 87.9668C212.179 88.8988 212.773 89.7344 213.518 90.4189C213.673 90.5931 213.84 90.7553 214 90.9056C214.149 91.0738 214.31 91.23 214.477 91.3863C214.631 91.5575 214.794 91.72 214.966 91.873C215.12 92.0412 215.275 92.1974 215.442 92.3537C215.597 92.5279 215.764 92.6902 215.931 92.8464C216.086 93.0146 216.24 93.1769 216.407 93.3271C216.562 93.5013 216.729 93.6636 216.896 93.8198C217.051 93.9881 217.206 94.1503 217.372 94.3005C217.524 94.4736 217.685 94.6381 217.855 94.7932C218.839 95.8666 220.121 96.616 221.534 96.9436C222.947 97.2713 224.425 97.1622 225.775 96.6303C227.126 96.0985 228.286 95.1687 229.105 93.9621C229.923 92.7556 230.363 91.3282 230.366 89.8661V79.9937H231.676C232.631 80.0104 233.579 79.8354 234.466 79.4789C235.353 79.1224 236.16 78.5915 236.842 77.917C237.523 77.2426 238.065 76.4382 238.435 75.5506C238.805 74.663 238.997 73.7101 238.998 72.7471C239.012 71.7489 238.82 70.7586 238.434 69.8391C238.048 68.9196 237.478 68.0908 236.758 67.4054ZM211.183 39.1643V60.4593H194.168L211.183 39.1643Z" fill="#020817"/>
<path opacity="0.1" d="M236.758 67.4054C236.603 67.2311 236.436 67.0629 236.27 66.9066C236.109 66.7324 235.942 66.5702 235.775 66.4139C235.614 66.2397 235.453 66.0714 235.287 65.9152C235.126 65.7409 234.959 65.5727 234.792 65.4225C234.631 65.2482 234.47 65.08 234.304 64.9238C234.143 64.7495 233.976 64.5813 233.809 64.431C233.648 64.2568 233.481 64.0886 233.321 63.9323C233.167 63.7592 233.004 63.5947 232.832 63.4396C232.671 63.2653 232.504 63.1031 232.338 62.9469C231.833 62.3843 231.241 61.9075 230.586 61.5348V11.8786C230.586 11.6142 230.461 11.482 230.461 11.2176C230.493 10.948 230.448 10.6747 230.33 10.4305C230.33 10.2983 230.205 10.0339 230.205 9.90168C230.133 9.63155 230.044 9.36658 229.937 9.10854C229.801 8.96165 229.712 8.77766 229.681 8.57976C229.533 8.34099 229.356 8.12108 229.156 7.92481C229.019 7.79262 228.894 7.53424 228.763 7.39604L228.239 6.86728C228.239 6.78916 228.138 6.70504 228.024 6.65697L227.768 6.39258H227.738C227.738 6.30846 227.643 6.23034 227.53 6.17627L227.268 5.91789C227.268 5.83978 227.166 5.75566 227.053 5.70158L226.797 5.4432C226.797 5.35908 226.696 5.28096 226.583 5.22688L226.326 4.96251C226.326 4.88439 226.225 4.80027 226.112 4.74619L225.85 4.48781V4.45776C225.85 4.37965 225.749 4.30154 225.635 4.24746L225.379 3.98308H225.349C225.349 3.90496 225.254 3.82084 225.141 3.76676L224.879 3.50838V3.47835C224.879 3.40023 224.778 3.32211 224.664 3.26804L224.408 3.00365H224.378C224.378 2.91953 224.283 2.84141 224.17 2.78733L223.908 2.52896C223.908 2.45085 223.806 2.36672 223.693 2.31865L223.407 2.03024C223.407 1.89804 223.151 1.76585 223.014 1.76585C223.014 1.74849 223.011 1.7313 223.004 1.71527C222.998 1.69923 222.988 1.68465 222.976 1.67238C222.964 1.6601 222.949 1.65037 222.933 1.64372C222.917 1.63708 222.9 1.63366 222.883 1.63366C222.627 1.50747 222.49 1.36927 222.234 1.23708C222.008 1.07224 221.792 0.895754 221.584 0.708314C221.453 0.708314 221.191 0.582126 221.06 0.582126C220.798 0.449934 220.411 0.449936 220.274 0.311735C220.048 0.33089 219.821 0.287242 219.618 0.185547H217.402C217.247 0.286271 217.062 0.330763 216.878 0.311735C216.485 0.449936 216.229 0.449934 216.092 0.582126C215.835 0.582126 215.704 0.708312 215.567 0.978706C215.288 0.985987 215.016 1.07582 214.787 1.23708C214.662 1.36927 214.394 1.50747 214.269 1.63366C214.091 1.82459 213.864 1.9619 213.613 2.03024C213.514 2.22819 213.381 2.40713 213.22 2.55901C213.089 2.6912 213.089 2.81738 212.964 2.81738L164.416 63.2714C163.269 64.6614 162.696 66.4438 162.817 68.2486C162.938 70.0534 163.743 71.7418 165.066 72.9635C165.219 73.145 165.386 73.3138 165.566 73.4682C165.716 73.6491 165.881 73.816 166.061 73.9669C166.214 74.1484 166.381 74.3172 166.561 74.4717C167.06 74.9714 167.557 75.4741 168.05 75.9798C168.386 76.3103 168.718 76.6448 169.045 76.9833C169.198 77.1629 169.366 77.3297 169.546 77.482C169.854 77.8352 170.197 78.1553 170.57 78.4374C171.797 79.5133 173.384 80.0783 175.009 80.0177H211.183V85.011C211.172 86.0275 211.374 87.0348 211.777 87.9668C212.179 88.8988 212.773 89.7344 213.518 90.4189C213.673 90.5931 213.84 90.7553 214 90.9056C214.149 91.0738 214.31 91.23 214.477 91.3863C214.631 91.5575 214.794 91.72 214.966 91.873C215.12 92.0412 215.275 92.1974 215.442 92.3537C215.597 92.5279 215.764 92.6902 215.931 92.8464C216.086 93.0146 216.24 93.1769 216.407 93.3271C216.562 93.5013 216.729 93.6636 216.896 93.8198C217.051 93.9881 217.206 94.1503 217.372 94.3005C217.524 94.4736 217.685 94.6381 217.855 94.7932C218.839 95.8666 220.121 96.616 221.534 96.9436C222.947 97.2713 224.425 97.1622 225.775 96.6303C227.126 96.0985 228.286 95.1687 229.105 93.9621C229.923 92.7556 230.363 91.3282 230.366 89.8661V79.9937H231.676C232.631 80.0104 233.579 79.8354 234.466 79.4789C235.353 79.1224 236.16 78.5915 236.842 77.917C237.523 77.2426 238.065 76.4382 238.435 75.5506C238.805 74.663 238.997 73.7101 238.998 72.7471C239.012 71.7489 238.82 70.7586 238.434 69.8391C238.048 68.9196 237.478 68.0908 236.758 67.4054ZM211.183 39.1643V60.4593H194.168L211.183 39.1643Z" fill="black"/>
<path d="M234.171 67.7185C234.17 68.6812 233.979 69.634 233.61 70.5216C233.24 71.4091 232.699 72.2136 232.018 72.8881C231.337 73.5626 230.53 74.0936 229.644 74.4502C228.757 74.8068 227.809 74.9818 226.855 74.9651H225.55V84.9817C225.55 86.9036 224.793 88.7467 223.446 90.1057C222.098 91.4647 220.271 92.2282 218.365 92.2282C216.46 92.2282 214.632 91.4647 213.285 90.1057C211.938 88.7467 211.181 86.9036 211.181 84.9817V74.9651H170.032C168.407 75.0281 166.82 74.4628 165.594 73.3848C164.836 72.8124 164.201 72.0906 163.728 71.2631C163.254 70.4356 162.953 69.5197 162.842 68.5711C162.73 67.6225 162.811 66.661 163.079 65.7449C163.348 64.8288 163.798 63.9773 164.402 63.242L212.747 2.63183C212.878 2.63183 212.878 2.50565 213.01 2.37346C213.172 2.22315 213.305 2.04388 213.403 1.84468C213.653 1.77635 213.88 1.63904 214.058 1.4481C214.189 1.31591 214.451 1.18373 214.582 1.05153C214.809 0.884802 215.082 0.792506 215.363 0.787148C215.494 0.528772 215.625 0.396575 215.881 0.396575C216.012 0.264382 216.274 0.264385 216.667 0.132193C216.852 0.151974 217.038 0.105142 217.192 0H219.414C219.613 0.107364 219.839 0.153338 220.063 0.132193C220.194 0.264385 220.587 0.264382 220.85 0.396575C220.981 0.396575 221.243 0.528768 221.374 0.528768C221.636 0.787144 221.892 0.919342 222.023 1.05153C222.285 1.18373 222.416 1.31591 222.679 1.4481C222.713 1.4481 222.747 1.46203 222.771 1.48682C222.796 1.51161 222.81 1.54524 222.81 1.5803C222.941 1.5803 223.197 1.71249 223.197 1.84468L223.721 2.37346C223.852 2.50565 223.983 2.76402 224.114 2.89621C224.314 3.09501 224.49 3.31686 224.639 3.55718C224.671 3.75599 224.763 3.94023 224.901 4.08594C225.008 4.34116 225.096 4.60433 225.163 4.8731C225.163 5.00529 225.288 5.26967 225.288 5.40186C225.406 5.64816 225.451 5.92343 225.419 6.19502C225.419 6.45339 225.55 6.58558 225.55 6.84997V60.472H226.855C228.775 60.4623 230.622 61.2185 231.992 62.5758C233.362 63.9331 234.145 65.7816 234.171 67.7185ZM211.181 27.9286L185.188 60.472H211.181V27.9286Z" fill="#020817"/>
<path d="M186.399 49.3851C186.404 49.485 186.438 49.5812 186.498 49.6614C186.557 49.7417 186.638 49.8024 186.732 49.8359C186.825 49.8693 186.926 49.874 187.023 49.8494C187.119 49.8247 187.205 49.7718 187.272 49.6974C187.338 49.623 187.381 49.5304 187.395 49.4313C187.409 49.3323 187.393 49.2313 187.35 49.1412C187.307 49.0511 187.238 48.9759 187.153 48.9252C187.067 48.8745 186.969 48.8505 186.87 48.8563C186.805 48.8594 186.74 48.8756 186.681 48.9039C186.622 48.9322 186.569 48.9721 186.525 49.0214C186.481 49.0706 186.447 49.1281 186.426 49.1905C186.404 49.253 186.395 49.3191 186.399 49.3851Z" fill="white"/>
<path d="M132.176 82.1815L123.523 84.209L129.747 111.226L138.399 109.198L132.176 82.1815Z" fill="#EBEBEB"/>
<path d="M111.094 10.4613C103.865 12.1576 97.2972 15.9773 92.2205 21.4377C87.1438 26.8981 83.7862 33.754 82.5721 41.1388C81.3579 48.5235 82.3418 56.1055 85.3992 62.9264C88.4567 69.7473 93.4505 75.5008 99.7494 79.4596C106.048 83.4185 113.369 85.4049 120.787 85.1677C128.205 84.9306 135.387 82.4806 141.425 78.1275C147.463 73.7743 152.085 67.7134 154.708 60.711C157.331 53.7085 157.837 46.0789 156.162 38.7865C155.049 33.9408 153 29.364 150.132 25.3175C147.264 21.271 143.633 17.8342 139.448 15.2037C135.262 12.5731 130.604 10.8003 125.739 9.98655C120.873 9.17283 115.897 9.33415 111.094 10.4613ZM126.297 76.4794C120.586 77.8192 114.609 77.4206 109.122 75.3339C103.635 73.2471 98.8851 69.566 95.4729 64.7562C92.0606 59.9464 90.1393 54.2239 89.9519 48.3125C89.7646 42.4012 91.3196 36.5667 94.4203 31.5468C97.521 26.527 102.028 22.5475 107.372 20.1115C112.715 17.6756 118.655 16.8927 124.439 17.862C130.224 18.8312 135.594 21.5089 139.869 25.5566C144.145 29.6042 147.134 34.8398 148.459 40.6011C150.235 48.3228 148.898 56.4398 144.742 63.1676C140.586 69.8955 133.952 74.6836 126.297 76.4794Z" fill="#A6A6A6"/>
<path d="M135.141 101.534L129.338 102.893C127.328 103.364 126.078 105.389 126.545 107.416L133.967 139.636C134.434 141.662 136.441 142.924 138.45 142.453L144.253 141.093C146.263 140.622 147.513 138.597 147.046 136.571L139.624 104.351C139.157 102.324 137.15 101.063 135.141 101.534Z" fill="#263238"/>
<g opacity="0.3">
<path d="M148.472 40.5902C149.796 46.3493 149.397 52.3751 147.326 57.9057C145.255 63.4364 141.605 68.2235 136.837 71.6618C132.069 75.1001 126.397 77.0352 120.538 77.2224C114.679 77.4096 108.897 75.8405 103.923 72.7136C98.9484 69.5866 95.0049 65.0421 92.591 59.6548C90.1771 54.2675 89.4011 48.2792 90.3613 42.4471C91.3215 36.615 93.9746 31.201 97.9853 26.8897C101.996 22.5784 107.184 19.5633 112.893 18.2256C116.686 17.3364 120.614 17.2096 124.455 17.8524C128.296 18.4953 131.973 19.8952 135.277 21.9721C138.581 24.0491 141.447 26.7624 143.711 29.957C145.975 33.1515 147.593 36.7648 148.472 40.5902Z" fill="white"/>
<path d="M149.196 49.0078C148.758 56.8775 145.259 64.255 139.458 69.5365C133.657 74.8181 126.023 77.5767 118.217 77.2129L149.196 49.0078Z" fill="#EBEBEB"/>
<path d="M135.574 22.1706L93.1385 60.8008C92.0828 58.6795 91.2827 56.4383 90.7555 54.1251C90.138 51.4748 89.8894 48.7508 90.0168 46.0313L121.347 17.5078C126.407 17.8081 131.305 19.4136 135.574 22.1706Z" fill="#EBEBEB"/>
<path d="M147.66 37.7111L107.239 74.5026C105.473 73.6839 103.79 72.6917 102.217 71.5403L145.26 32.3633C146.238 34.0591 147.042 35.8509 147.66 37.7111Z" fill="#EBEBEB"/>
<path d="M138.809 24.5873L95.1641 64.3051C94.9616 64.0047 94.759 63.7042 94.5684 63.3978L137.963 23.9023C138.261 24.1187 138.541 24.341 138.809 24.5873Z" fill="#EBEBEB"/>
<path d="M111.448 18.6172L92.0859 36.2348C92.4136 35.3996 92.783 34.5824 93.1881 33.7893L108.934 19.4524C109.75 19.146 110.59 18.8635 111.448 18.6172Z" fill="#EBEBEB"/>
</g>
<path d="M98.5579 52.5306C98.5551 52.4906 98.5551 52.4504 98.5579 52.4104C98.4507 51.8095 98.6354 52.9812 98.5579 52.5907C98.4805 52.2001 98.4388 51.6653 98.403 51.2027C98.266 49.5712 98.266 47.931 98.403 46.2995C98.403 46.0652 98.4447 45.8369 98.4626 45.6085C98.4626 45.5364 98.3971 46.1493 98.4626 45.6626L98.5162 45.242C98.5877 44.7012 98.6771 44.1604 98.7843 43.6256C99.0102 42.4466 99.3148 41.2843 99.6958 40.1466C99.7852 39.8762 99.8864 39.6058 99.9818 39.3354C100.107 38.9689 99.8149 39.738 100.012 39.2573L100.208 38.7826C100.464 38.1817 100.744 37.5808 101.042 36.98C101.34 36.3791 101.727 35.7362 102.103 35.1413C102.281 34.8649 102.46 34.5945 102.645 34.3241C102.96 33.8614 102.496 34.5104 102.74 34.1859L103.092 33.7172C104.176 32.3417 105.389 31.0741 106.714 29.9317C106.714 29.9317 106.988 29.7094 106.785 29.8776C106.583 30.0459 106.892 29.7875 106.928 29.7575L107.524 29.2828C107.923 28.9823 108.328 28.6819 108.745 28.4175C109.619 27.8286 110.521 27.2851 111.45 26.7891C111.699 26.6313 111.914 26.4256 112.084 26.1838C112.254 25.942 112.375 25.6687 112.441 25.3797C112.506 25.0907 112.514 24.7915 112.465 24.4993C112.415 24.2071 112.309 23.9275 112.153 23.6766C111.996 23.4257 111.792 23.2083 111.553 23.0369C111.313 22.8654 111.042 22.7433 110.755 22.6775C110.469 22.6116 110.172 22.6034 109.883 22.6531C109.593 22.7029 109.316 22.8098 109.067 22.9676C103.181 26.1342 98.3434 31.1335 95.9128 37.4366C94.2672 41.6755 93.5655 46.2274 93.8575 50.77C93.9169 51.779 94.0443 52.7828 94.2387 53.7744C94.4085 54.3463 94.7957 54.8273 95.3159 55.1121C95.8361 55.397 96.4469 55.4626 97.0149 55.2946C97.5737 55.1091 98.041 54.7152 98.3212 54.1935C98.6014 53.6719 98.6733 53.0619 98.5222 52.4885L98.5579 52.5306Z" fill="white"/>
<path d="M100.529 58.9159C100.652 59.3351 100.649 59.7817 100.521 60.1993C100.393 60.6169 100.144 60.9867 99.8077 61.2621C99.471 61.5375 99.061 61.7061 98.6294 61.7465C98.1978 61.7869 97.764 61.6974 97.3828 61.4892C97.0017 61.281 96.6902 60.9635 96.4879 60.5769C96.2856 60.1903 96.2014 59.7518 96.246 59.3169C96.2907 58.8821 96.4622 58.4703 96.7388 58.1337C97.0154 57.7971 97.3847 57.5507 97.8001 57.4258C98.0762 57.3419 98.3661 57.3139 98.653 57.3435C98.9399 57.373 99.2182 57.4596 99.4718 57.5981C99.7254 57.7366 99.9494 57.9243 100.131 58.1505C100.312 58.3767 100.447 58.6368 100.529 58.9159Z" fill="white"/>
</svg>
