<svg width="146" height="146" viewBox="0 0 146 146" fill="none" xmlns="http://www.w3.org/2000/svg">
<g opacity="0.32">
<rect width="146" height="146" rx="73" fill="#B2B4BB"/>
<path d="M101.75 81.625V71.5625C101.75 64.4173 95.9577 58.625 88.8125 58.625H83.0625C80.6808 58.625 78.75 56.6942 78.75 54.3125V48.5625C78.75 41.4173 72.9577 35.625 65.8125 35.625H58.625M58.625 84.5H87.375M58.625 96H73M67.25 35.625H48.5625C46.1808 35.625 44.25 37.5558 44.25 39.9375V106.062C44.25 108.444 46.1808 110.375 48.5625 110.375H97.4375C99.8192 110.375 101.75 108.444 101.75 106.062V70.125C101.75 51.0712 86.3038 35.625 67.25 35.625Z" stroke="white" stroke-width="5" stroke-linecap="round" stroke-linejoin="round"/>
</g>
</svg>
