<svg width="147" height="146" viewBox="0 0 147 146" fill="none" xmlns="http://www.w3.org/2000/svg">
<g opacity="0.32">
<rect x="0.5" width="146" height="146" rx="73" fill="#0f172a"/>
<path d="M110.969 82.4955V101.266C110.969 106.1 107.395 110.259 102.467 110.895C92.9904 112.118 83.321 112.75 73.5 112.75C63.679 112.75 54.0096 112.118 44.5325 110.895C39.6051 110.259 36.0312 106.1 36.0312 101.266V82.4954M110.969 82.4955C113.112 80.7187 114.375 78.03 114.375 75.1592V58.4501C114.375 53.676 110.887 49.5511 106.032 48.8446C100.921 48.1009 95.7519 47.5298 90.5312 47.1374M110.969 82.4955C110.089 83.2244 109.062 83.7999 107.913 84.1714C97.0954 87.6688 85.5251 89.5625 73.5001 89.5625C61.475 89.5625 49.9047 87.6688 39.0873 84.1714C37.938 83.7998 36.9106 83.2243 36.0312 82.4954M36.0312 82.4954C33.8879 80.7186 32.625 78.03 32.625 75.1592V58.4501C32.625 53.676 36.1126 49.5511 40.9678 48.8446C46.0789 48.1009 51.2481 47.5298 56.4687 47.1374M90.5312 47.1374V43.1875C90.5312 37.6992 85.9562 33.25 80.3125 33.25H66.6875C61.0438 33.25 56.4687 37.6992 56.4687 43.1875V47.1374M90.5312 47.1374C84.9112 46.7151 79.2314 46.5 73.5 46.5C67.7686 46.5 62.0888 46.7151 56.4687 47.1374M73.5 76.3125H73.5341V76.3456H73.5V76.3125Z" stroke="white" stroke-width="5" stroke-linecap="round" stroke-linejoin="round"/>
</g>
</svg>
